<svg height="583" width="512" xmlns="http://www.w3.org/2000/svg"><g fill="#181816"><path d="m312.9724121 207.5424805s2.2106934-24.5756073 50.743927-26.2846832c40.9171448 2.4359589 69.5848389 42.068634 79.3115845 54.743515 0 0-35.4652405 23.5021057-71.9954834-17.3129883-42.1268921-37.7966309-58.0600281-11.1458435-58.0600281-11.1458435z"/><path d="m312.9724121 207.5424805s2.2106934-24.5756073 50.743927-26.2846832c40.9171448 2.4359589 69.5848389 42.068634 79.3115845 54.743515 0 0-35.4652405 23.5021057-71.9954834-17.3129883-42.1268921-37.7966309-58.0600281-11.1458435-58.0600281-11.1458435z" stroke="#000" stroke-width="1.00256"/><path d="m312.5106812 220.849411s-4.1448059 17.9983521 19.9196472 31.9161987c16.7887878 9.7099762 7.3470154 12.3740692 7.3470154 12.3740692s7.7943115 1.4107971 20.8937988-10.5087738c18.6053162-16.9296417 9.1490479-30.3481903 9.1490479-30.3481903s-19.6157532-27.821991-37.2114868-6.5060883c-.0000001.0000001-5.5667725 6.5311891-20.0980225 3.0727845z"/><path d="m312.5106812 220.849411s-4.1448059 17.9983521 19.9196472 31.9161987c16.7887878 9.7099762 7.3470154 12.3740692 7.3470154 12.3740692s7.7943115 1.4107971 20.8937988-10.5087738c18.6053162-16.9296417 9.1490479-30.3481903 9.1490479-30.3481903s-19.6157532-27.821991-37.2114868-6.5060883c-.0000001.0000001-5.5667725 6.5311891-20.0980225 3.0727845z" stroke="#000" stroke-width="1.00256"/><path d="m376.7386475 229.5398254s2.5874023 26.7101135-34.1583862 37.9992981c0 0 37.6686707-14.2524109 78.7260437 20.8288574 0 0 4.297699-32.1835632 23.8536987-48.692749-2.2252198.6440888-32.7768555 20.7867432-68.4213562-10.1354065z"/><path d="m376.7386475 229.5398254s2.5874023 26.7101135-34.1583862 37.9992981c0 0 37.6686707-14.2524109 78.7260437 20.8288574 0 0 4.297699-32.1835632 23.8536987-48.692749-2.2252198.6440888-32.7768555 20.7867432-68.4213562-10.1354065z" stroke="#000" stroke-width="1.00256"/><path d="m314.9327393 215.4008484s12.2541809 11.7436829 23.467865-10.8352966c-.0000001 0-13.9338379-9.713913-23.467865 10.8352966z"/><path d="m314.9327393 215.4008484s12.2541809 11.7436829 23.467865-10.8352966c-.0000001 0-13.9338379-9.713913-23.467865 10.8352966z" stroke="#000" stroke-width=".966017"/><path d="m324.9747925 210.5650482c.4594727 1.5313263-.2626343 3.0895844-1.6140747 3.4810181-1.3516541.3914185-2.8198853-.5325012-3.2802124-2.063797-.4594727-1.5306854.2634277-3.0889587 1.6148987-3.4803925 1.351654-.3912506 2.8199157.5324707 3.2793884 2.0631714z"/><path d="m501.8789368 352.2329407c2.398407-51.9615173 1.5143127-90.7306519-34.1318665-114.7909851-45.8412781-52.1859894-99.7305603-123.3065262-88.4009399-209.4473724 8.1882019-62.2542343 12.6838074-1.2432098 12.6838074-1.2432098s10.1352234 88.776207 43.5310974 117.2900238c85.0836181 75.1120147 85.1824951 116.3266143 66.3179016 208.1915435z"/><path d="m501.8789368 352.2329407c2.398407-51.9615173 1.5143127-90.7306519-34.1318665-114.7909851-45.8412781-52.1859894-99.7305603-123.3065262-88.4009399-209.4473724 8.1882019-62.2542343 12.6838074-1.2432098 12.6838074-1.2432098s10.1352234 88.776207 43.5310974 117.2900238c85.0836181 75.1120147 85.1824951 116.3266143 66.3179016 208.1915435z" stroke="#000" stroke-width="1.00256"/><path d="m363.3312988 73.1527557s12.2542114 60.1196899 44.8375244 97.4278107c34.2328796 39.1976776 25.7497253 30.5249023 54.4223938 66.4100037 0 0-3.1885071-2.8804779-12.884613.0713654 0 0-26.2149353-39.6847534-52.0920105-51.7744446 0 0-32.4381104-33.2377625-37.4929504-69.0394974-8.2083435-58.1369744-.7266541-65.0537834 3.2096557-43.0952378z"/><path d="m363.3312988 73.1527557s12.2542114 60.1196899 44.8375244 97.4278107c34.2328796 39.1976776 25.7497253 30.5249023 54.4223938 66.4100037 0 0-3.1885071-2.8804779-12.884613.0713654 0 0-26.2149353-39.6847534-52.0920105-51.7744446 0 0-32.4381104-33.2377625-37.4929504-69.0394974-8.2083435-58.1369744-.7266541-65.0537834 3.2096557-43.0952378z" stroke="#000" stroke-width="1.00256"/><path d="m391.1433716 181.8396759s-29.217041-32.7743378-32.0547791-41.8084869c-5.0108643-15.954895-6.881134-20.5403061-8.5001831-6.8412933-.8977966 7.6021729 4.6171265 42.6633148 20.0308228 44.2651672 10.230011 1.0631256 20.5241394 4.384613 20.5241394 4.384613z"/><path d="m391.1433716 181.8396759s-29.217041-32.7743378-32.0547791-41.8084869c-5.0108643-15.954895-6.881134-20.5403061-8.5001831-6.8412933-.8977966 7.6021729 4.6171265 42.6633148 20.0308228 44.2651672 10.230011 1.0631256 20.5241394 4.384613 20.5241394 4.384613z" stroke="#000" stroke-width="1.163039"/><path d="m.2306412 130.9200745c-1.8937013 25.2636871 8.0925703 68.6708832 21.9178982 86.9911957 27.1191959 55.4651642 102.2880859 120.9363251 205.9583282 101.2077179 32.2225647-9.194458 60.2738037 5.7759399 80.3894653 22.935791 19.3469238 19.7138977 26.1282654 23.0967712 39.3769226 15.2936096-13.7388611-13.3067627-28.4457703-28.8590088-28.1396179-49.3613281.9652405-14.8861694 6.3909912-29.475708 15.9412231-37.4263916-9.4286804-33.0855103-62.2614746-34.6834106-85.8023529-32.3182068-30.4853058 2.059845-61.0952759 17.7902832-88.3223267 20.793396-75.6030655-6.1924591-130.4073486-58.2334595-148.209671-138.3499298-7.5472123-36.9003068-11.2169974-15.0294724-13.1098689 10.2341461z"/><path d="m.2306412 130.9200745c-1.8937013 25.2636871 8.0925703 68.6708832 21.9178982 86.9911957 27.1191959 55.4651642 102.2880859 120.9363251 205.9583282 101.2077179 32.2225647-9.194458 60.2738037 5.7759399 80.3894653 22.935791 19.3469238 19.7138977 26.1282654 23.0967712 39.3769226 15.2936096-13.7388611-13.3067627-28.4457703-28.8590088-28.1396179-49.3613281.9652405-14.8861694 6.3909912-29.475708 15.9412231-37.4263916-9.4286804-33.0855103-62.2614746-34.6834106-85.8023529-32.3182068-30.4853058 2.059845-61.0952759 17.7902832-88.3223267 20.793396-75.6030655-6.1924591-130.4073486-58.2334595-148.209671-138.3499298-7.5472123-36.9003068-11.2169974-15.0294724-13.1098689 10.2341461z" stroke="#000" stroke-width="1.058273"/><path d="m69.2523117 303.0021057c53.4331131 31.787384 107.0193253 42.2460022 151.2206116 25.8648376 0 0 40.3547668-24.5237427 96.87854 26.9905701 0 0-63.4582062 33.7296143-124.1192932 31.4996643-21.9519043-.8069458-90.7306671-15.2442017-135.5275269-61.0645447-40.691864-41.6228638-41.3473701-85.0755157-23.0749893-57.536438 18.0016899 27.1297303 34.6226578 34.2459107 34.6226578 34.2459107z"/><path d="m69.2523117 303.0021057c53.4331131 31.787384 107.0193253 42.2460022 151.2206116 25.8648376 0 0 40.3547668-24.5237427 96.87854 26.9905701 0 0-63.4582062 33.7296143-124.1192932 31.4996643-21.9519043-.8069458-90.7306671-15.2442017-135.5275269-61.0645447-40.691864-41.6228638-41.3473701-85.0755157-23.0749893-57.536438 18.0016899 27.1297303 34.6226578 34.2459107 34.6226578 34.2459107z" stroke="#000" stroke-width="1.00256"/><path d="m162.7688751 396.4431763c77.9358978 7.3584595 124.4293671-19.3508606 158.3301544-35.1113586 5.6811218 40.5323486-61.9590454 71.0240479-110.2126312 66.6719971-32.2736206-1.5680237-77.4320374-8.6791992-105.4936218-37.8955688-2.7056122-2.8165894-21.2308655-26.4394531 8.3858871-8.1929932 19.1838608 9.1150206 32.8683396 11.2931212 48.9902115 14.5279235z"/><path d="m162.7688751 396.4431763c77.9358978 7.3584595 124.4293671-19.3508606 158.3301544-35.1113586 5.6811218 40.5323486-61.9590454 71.0240479-110.2126312 66.6719971-32.2736206-1.5680237-77.4320374-8.6791992-105.4936218-37.8955688-2.7056122-2.8165894-21.2308655-26.4394531 8.3858871-8.1929932 19.1838608 9.1150206 32.8683396 11.2931212 48.9902115 14.5279235z" stroke="#000" stroke-width=".960815"/><path d="m329.8178406 364.2788696c14.7080078 29.7285767 26.6590881 36.0643616 67.6760254 53.9915466 25.0099487 11.4358521 33.2102051 18.0056152 27.3751831 28.4204407 0 0 31.0955505-16.6444092 45.6137085-38.5071106 0 0-78.7890625-13.9632568-119.7346191-48.8817139-10.3621522 8.5261231-20.9302979 4.9768372-20.9302979 4.9768372z"/><path d="m329.8178406 364.2788696c14.7080078 29.7285767 26.6590881 36.0643616 67.6760254 53.9915466 25.0099487 11.4358521 33.2102051 18.0056152 27.3751831 28.4204407 0 0 31.0955505-16.6444092 45.6137085-38.5071106 0 0-78.7890625-13.9632568-119.7346191-48.8817139-10.3621522 8.5261231-20.9302979 4.9768372-20.9302979 4.9768372z" stroke="#000" stroke-width="1.00256"/><path d="m326.6683044 367.2236633s1.2770081 34.7888184-48.2875977 57.620697c-35.6729126 16.4330139 9.2276611 10.2382812 32.118042-.8855896 23.5417175-11.4408264 28.6676941-27.5180664 25.2918396-40.7202759-2.5773925-10.0785522-6.5415343-13.225006-9.1222839-16.0148315z"/><path d="m326.6683044 367.2236633s1.2770081 34.7888184-48.2875977 57.620697c-35.6729126 16.4330139 9.2276611 10.2382812 32.118042-.8855896 23.5417175-11.4408264 28.6676941-27.5180664 25.2918396-40.7202759-2.5773925-10.0785522-6.5415343-13.225006-9.1222839-16.0148315z" stroke="#000" stroke-width=".936644"/><path d="m501.0935974 355.6216736s-14.3464355 40.2688904-27.5357666 51.4535217c0 0 8.4305115 2.0046692 11.4269714 19.9343872 8.5924683-21.0454407 16.1087952-71.3879089 16.1087952-71.3879089z"/><path d="m501.0935974 355.6216736s-14.3464355 40.2688904-27.5357666 51.4535217c0 0 8.4305115 2.0046692 11.4269714 19.9343872 8.5924683-21.0454407 16.1087952-71.3879089 16.1087952-71.3879089z" stroke="#000" stroke-width="1.00256"/><path d="m472.3544617 412.0561829s14.0508423 48.1011353-50.0346375 101.3390808c-28.1546936 23.3902588-57.3597107 34.6858521-91.0351868 41.4234619 0 0-66.6742859 10.9473877-81.9348755-36.2651367 0 0 13.6738892 8.0853271 49.1652832 5.6696777 99.9268189-6.8007812 164.901764-61.8878479 173.8394166-112.1670837z"/><path d="m472.3544617 412.0561829s14.0508423 48.1011353-50.0346375 101.3390808c-28.1546936 23.3902588-57.3597107 34.6858521-91.0351868 41.4234619 0 0-66.6742859 10.9473877-81.9348755-36.2651367 0 0 13.6738892 8.0853271 49.1652832 5.6696777 99.9268189-6.8007812 164.901764-61.8878479 173.8394166-112.1670837z" stroke="#000" stroke-width="1.00256"/><path d="m286.1434326 494.3547058s8.8702698 21.3887634 37.1314087 20.9545593c48.838562-.7513428 128.14151-44.0643921 142.7527771-96.1596985 0 0-41.0532227 48.7771606-115.8895569 66.2853088-48.6118469 11.3725587-63.9946289 8.9198304-63.9946289 8.9198304z"/><path d="m286.1434326 494.3547058s8.8702698 21.3887634 37.1314087 20.9545593c48.838562-.7513428 128.14151-44.0643921 142.7527771-96.1596985 0 0-41.0532227 48.7771606-115.8895569 66.2853088-48.6118469 11.3725587-63.9946289 8.9198304-63.9946289 8.9198304z" stroke="#000" stroke-width="1.00256"/><path d="m477.3477173 414.4060669c15.7929077 15.356842 11.5119934 133.6994019-105.8031006 163.7664185 0 0-46.8089905 14.960083-82.349762-12.8577881 46.7337036 5.833313 115.8786011-24.6973877 143.4109802-52.8035278 30.6434022-31.281067 49.1758729-63.4013367 44.7418824-98.1051026z"/><path d="m477.3477173 414.4060669c15.7929077 15.356842 11.5119934 133.6994019-105.8031006 163.7664185 0 0-46.8089905 14.960083-82.349762-12.8577881 46.7337036 5.833313 115.8786011-24.6973877 143.4109802-52.8035278 30.6434022-31.281067 49.1758729-63.4013367 44.7418824-98.1051026z" stroke="#000" stroke-width="1.00256"/><path d="m158.5941925 219.4450531c58.4900208-24.3836975 109.9080963-23.889389 152.9635162-11.7501068 0 0-1.8903809 4.1267853-5.6591187 3.2306366-1.3265686-.3153076.3872681 2.8132782 6.1582031 9.4423676-43.8656615-17.7326203-96.2348327-14.5658723-153.4626006-.9228974z"/><path d="m158.5941925 219.4450531c58.4900208-24.3836975 109.9080963-23.889389 152.9635162-11.7501068 0 0-1.8903809 4.1267853-5.6591187 3.2306366-1.3265686-.3153076.3872681 2.8132782 6.1582031 9.4423676-43.8656615-17.7326203-96.2348327-14.5658723-153.4626006-.9228974z" stroke="#000" stroke-width="1.454299"/><path d="m419.9691467 292.2574463s-9.4570923-9.2504883-24.4735413-16.0716858c-7.5075989-3.4104614-17.1712952-6.744812-26.2068481-6.9506226-11.0873718-.2520142-20.9147644-1.925415-32.5151062 7.0576477-37.6134644 46.2140808 11.3232117 102.7312012 128.8140259 126.2511292-12.4811401-1.0745239-147.9356384-135.8320313-45.6185303-110.2864685z"/><path d="m419.9691467 292.2574463s-9.4570923-9.2504883-24.4735413-16.0716858c-7.5075989-3.4104614-17.1712952-6.744812-26.2068481-6.9506226-11.0873718-.2520142-20.9147644-1.925415-32.5151062 7.0576477-37.6134644 46.2140808 11.3232117 102.7312012 128.8140259 126.2511292-12.4811401-1.0745239-147.9356384-135.8320313-45.6185303-110.2864685z" stroke="#000" stroke-dasharray="4.56 9.12" stroke-linecap="round" stroke-width="4.56"/><path d="m423.787262 290.4448547s1.538147-11.0193176 7.2190552-24.4857788c5.6810913-13.4672699 16.1129456-28.4619446 31.4349365-25.1883545 23.0063171 8.9862061 46.0196838 47.0786743 33.6503906 117.1213379-6.3090515 22.3166199-21.5905762 43.3277893-21.5905762 43.3277893 2.7348938.5113221-3.4503174-204.5823669-50.7138061-110.7749939z"/><path d="m423.787262 290.4448547s1.538147-11.0193176 7.2190552-24.4857788c5.6810913-13.4672699 16.1129456-28.4619446 31.4349365-25.1883545 23.0063171 8.9862061 46.0196838 47.0786743 33.6503906 117.1213379-6.3090515 22.3166199-21.5905762 43.3277893-21.5905762 43.3277893 2.7348938.5113221-3.4503174-204.5823669-50.7138061-110.7749939z" stroke="#000" stroke-dasharray="4.56 9.12" stroke-linecap="round" stroke-width="4.56"/><path d="m424.8634338 297.5925293c-41.9729919-15.3584595-57.5202637 19.0000916 47.9084473 108.0702209-2.2250061-49.1391601-11.1991577-182.413269-47.9084473-108.0702209z"/><path d="m424.8634338 297.5925293c-41.9729919-15.3584595-57.5202637 19.0000916 47.9084473 108.0702209-2.2250061-49.1391601-11.1991577-182.413269-47.9084473-108.0702209z" stroke="#000" stroke-dasharray="4.56 9.12" stroke-linecap="round" stroke-width="4.56"/></g></svg>