<svg height="48pt" viewBox="0 0 48 48" width="48pt" xmlns="http://www.w3.org/2000/svg" xmlns:xlink="http://www.w3.org/1999/xlink"><linearGradient id="a" gradientUnits="userSpaceOnUse" x1="20.100457" x2="32.438286" y1="1.404703" y2="45.814204"><stop offset=".28" stop-color="#00cdd7"/><stop offset=".94" stop-color="#2086d7"/></linearGradient><path d="m21.49 44.5c.828 0 1.5.672 1.5 1.5 0 .828-.672 1.5-1.5 1.5h-18.99c-1.104 0-2-.896-2-2v-26.79c0-1.104.67-2.595 1.495-3.329l15.105-13.431c.618-.546 1.568-.488 2.12.13.552.618.494 1.564-.13 2.11l-15.59 13.87v26.44zm6.02-41c-.828 0-1.5-.672-1.5-1.5 0-.828.672-1.5 1.5-1.5h18.99c.552 0 1 .448 1 1v28.79c0 .552-.335 1.298-.747 1.664l-15.853 14.096c-.618.546-1.568.488-2.12-.13-.552-.618-.494-1.564.13-2.11l15.59-13.87v-26.44zm-4.51 8.5c-5.54 0-10 4.46-10 10v2c0 5.54 4.46 10 10 10h10v-6h-10c-2.32 0-4-1.68-4-4v-2c0-2.32 1.68-4 4-4h10v-6z" fill="url(#a)" fill-rule="evenodd"/></svg>