<?xml version="1.0" encoding="UTF-8"?>
<svg version="1.1" xmlns="http://www.w3.org/2000/svg" width="128" height="128">
<path d="M0 0 C4.30919542 1.30662831 7.99559728 2.97183475 11.88671875 5.23046875 C13.5428418 6.18856445 13.5428418 6.18856445 15.23242188 7.16601562 C15.8014624 7.49899658 16.37050293 7.83197754 16.95678711 8.17504883 C18.66237344 9.17280119 20.37314826 10.16166705 22.08398438 11.15039062 C24.31751238 12.44798873 26.54333176 13.75895224 28.76098633 15.08349609 C30.8837462 16.33951969 33.02939751 17.55780315 35.19799805 18.73291016 C43.38625901 23.38184174 43.38625901 23.38184174 44.80859375 28.25 C45.06643575 29.8262008 45.2740604 31.41123351 45.4375 33 C45.56543945 33.85215088 45.69337891 34.70430176 45.82519531 35.58227539 C46.09971202 37.4131034 46.35585214 39.24676461 46.59521484 41.08251953 C47.02155758 44.15537584 47.55240074 47.1950361 48.11328125 50.24609375 C49.59604791 58.31718404 49.59604791 58.31718404 50.265625 62.18359375 C50.47880371 63.39873657 50.47880371 63.39873657 50.69628906 64.63842773 C51.01508628 67.11730676 51.05210919 69.50347068 51 72 C52.26585938 72.35707031 53.53171875 72.71414062 54.8359375 73.08203125 C63.21817935 75.5967038 71.40535961 78.69319092 79.625 81.6875 C81.3137104 82.3003829 83.00251176 82.9130152 84.69140625 83.52539062 C88.7953257 85.01403906 92.89799794 86.5060767 97 88 C97 88.66 97 89.32 97 90 C95.2917659 90.98845277 93.58340406 91.97668477 91.875 92.96484375 C90.23724609 93.91254639 90.23724609 93.91254639 88.56640625 94.87939453 C86.18178714 96.2574768 83.79356781 97.629018 81.40234375 98.99560547 C76.2363293 101.95159683 71.08378715 104.9063196 66.0625 108.10546875 C65.010625 108.7562439 65.010625 108.7562439 63.9375 109.42016602 C62.69149595 110.19499339 61.46043125 110.99467385 60.25 111.82397461 C57.83616824 113.29385567 55.76709751 114.0913125 52.93261719 113.75390625 C50.21275268 112.99019482 47.63337219 112.0250796 45 111 C43.73582292 110.53056327 42.47078792 110.06343288 41.20507812 109.59814453 C36.12733472 107.72169506 31.05589133 105.82773536 26.00244141 103.88671875 C23.82398979 103.05211406 21.63942421 102.23566101 19.453125 101.421875 C18.79362854 101.16363953 18.13413208 100.90540405 17.45465088 100.63934326 C13.24638313 99.09368864 10.32408418 98.77410187 6 100 C3.53340115 101.72227348 3.53340115 101.72227348 1.3125 104 C-3.01691127 108.09643846 -7.4769925 111.90501463 -12.11328125 115.6484375 C-14.1932174 117.34278332 -16.25005699 119.0513036 -18.29296875 120.7890625 C-18.83840332 121.25127197 -19.38383789 121.71348145 -19.94580078 122.18969727 C-21.48858298 123.49973416 -23.02759207 124.81421065 -24.56640625 126.12890625 C-27 128 -27 128 -29 128 C-29.33175354 121.08201579 -29.55810776 114.1661018 -29.71411133 107.24194336 C-29.77918021 104.89122912 -29.86767318 102.54103488 -29.98071289 100.19213867 C-30.94672684 79.59112616 -30.94672684 79.59112616 -26.24389648 74.1003418 C-23.12015696 71.19262711 -19.68169239 69.13632369 -16 67 C-14.11925265 65.5121635 -12.25987641 63.99628551 -10.4375 62.4375 C-7.55197678 60.04639435 -4.64874836 57.73053362 -1.61328125 55.53515625 C-1.05261963 55.11242432 -0.49195801 54.68969238 0.08569336 54.25415039 C1.66213048 53.06621472 3.26022232 51.90717581 4.859375 50.75 C7.37927474 48.08966869 7.37927474 48.08966869 7.01953125 44.265625 C6.70565546 42.50558748 6.36073196 40.7510347 6 39 C5.65575821 37.01890494 5.31176282 35.03776485 4.97122192 33.05603027 C4.18050997 28.5017015 3.3417305 23.95589756 2.50854492 19.40917969 C2.09445429 17.14323004 1.68565411 14.87637222 1.27734375 12.609375 C1.14923813 11.91970642 1.02113251 11.23003784 0.8891449 10.51947021 C0.25178097 6.96846222 -0.14230667 3.60858393 0 0 Z M9 49 C9 64.18 9 79.36 9 95 C13.45984558 93.51338481 16.5588997 92.27228191 20.484375 89.953125 C21.50273438 89.355 22.52109375 88.756875 23.5703125 88.140625 C24.61960937 87.51671875 25.66890625 86.8928125 26.75 86.25 C27.78382812 85.6415625 28.81765625 85.033125 29.8828125 84.40625 C36.27558152 80.6382199 42.6425174 76.82721159 49 73 C46.09882212 69.85071195 43.24077037 67.81122032 39.4921875 65.7578125 C38.42226562 65.16613281 37.35234375 64.57445313 36.25 63.96484375 C35.13625 63.35769531 34.0225 62.75054687 32.875 62.125 C30.68407282 60.92076698 28.4939584 59.71505399 26.3046875 58.5078125 C25.24733398 57.92547852 24.18998047 57.34314453 23.10058594 56.74316406 C19.29084175 54.60130788 15.5543107 52.35263294 11.83251953 50.06201172 C10.20880199 48.91643035 10.20880199 48.91643035 9 49 Z " fill="#DADC55" transform="translate(30,0)"/>
<path d="M0 0 C1.35019981 0.49728859 1.35019981 0.49728859 2.72767639 1.00462341 C5.58261435 2.05780229 8.43388465 3.12053419 11.28515625 4.18359375 C13.22828076 4.902328 15.17163788 5.62043371 17.11523438 6.33789062 C21.86209816 8.09169496 26.60569779 9.8540716 31.34765625 11.62109375 C31.34765625 12.28109375 31.34765625 12.94109375 31.34765625 13.62109375 C29.63942215 14.60954652 27.93106031 15.59777852 26.22265625 16.5859375 C25.13082031 17.21773926 24.03898437 17.84954102 22.9140625 18.50048828 C20.52944339 19.87857055 18.14122406 21.25011175 15.75 22.61669922 C10.58398555 25.57269058 5.4314434 28.52741335 0.41015625 31.7265625 C-0.29109375 32.1604126 -0.99234375 32.5942627 -1.71484375 33.04125977 C-2.9608478 33.81608714 -4.1919125 34.6157676 -5.40234375 35.44506836 C-7.78241528 36.89439143 -9.85336924 37.71319315 -12.65380859 37.39038086 C-15.39076176 36.61894005 -17.99596226 35.63834372 -20.65234375 34.62109375 C-22.04203878 34.12440282 -23.43310514 33.63153942 -24.82519531 33.14160156 C-29.65384396 31.43623379 -34.46575262 29.6863944 -39.27734375 27.93359375 C-40.96605415 27.32071085 -42.65485551 26.70807855 -44.34375 26.09570312 C-48.44766945 24.60705469 -52.55034169 23.11501705 -56.65234375 21.62109375 C-56.65234375 20.63109375 -56.65234375 19.64109375 -56.65234375 18.62109375 C-55.97357178 18.24412354 -55.2947998 17.86715332 -54.59545898 17.47875977 C-51.42547681 15.71628724 -48.25765216 13.9499702 -45.08984375 12.18359375 C-43.37885498 11.23311157 -43.37885498 11.23311157 -41.63330078 10.26342773 C-36.65903176 7.48659157 -31.70603471 4.7108549 -26.8984375 1.65234375 C-25.89502319 1.01703735 -25.89502319 1.01703735 -24.87133789 0.36889648 C-23.14971671 -0.73774602 -21.44334635 -1.86801497 -19.73828125 -3 C-13.21585052 -5.91445323 -6.30532635 -2.36584842 0 0 Z " fill="#E5E792" transform="translate(95.65234375,76.37890625)"/>
<path d="M0 0 C0.33175354 6.91798421 0.55810776 13.8338982 0.71411133 20.75805664 C0.77918021 23.10877088 0.86767318 25.45896512 0.98071289 27.80786133 C1.94672684 48.40887384 1.94672684 48.40887384 -2.75610352 53.8996582 C-5.87984304 56.80737289 -9.31830761 58.86367631 -13 61 C-14.87991157 62.48889238 -16.73911572 64.00489356 -18.5625 65.5625 C-19.4390625 66.2740625 -20.315625 66.985625 -21.21875 67.71875 C-23.2560526 69.38979595 -25.27436185 71.07445727 -27.28125 72.78125 C-27.82837646 73.2445874 -28.37550293 73.7079248 -28.93920898 74.18530273 C-30.48455501 75.4963716 -32.02559821 76.81250718 -33.56640625 78.12890625 C-36 80 -36 80 -38 80 C-38.33175354 73.08201579 -38.55810776 66.1661018 -38.71411133 59.24194336 C-38.77918021 56.89122912 -38.86767318 54.54103488 -38.98071289 52.19213867 C-39.94672684 31.59112616 -39.94672684 31.59112616 -35.24389648 26.1003418 C-32.12015696 23.19262711 -28.68169239 21.13632369 -25 19 C-23.12008843 17.51110762 -21.26088428 15.99510644 -19.4375 14.4375 C-18.5609375 13.7259375 -17.684375 13.014375 -16.78125 12.28125 C-14.7439474 10.61020405 -12.72563815 8.92554273 -10.71875 7.21875 C-10.17162354 6.7554126 -9.62449707 6.2920752 -9.06079102 5.81469727 C-7.51544499 4.5036284 -5.97440179 3.18749282 -4.43359375 1.87109375 C-2 0 -2 0 0 0 Z " fill="#8B8D08" transform="translate(39,48)"/>
</svg>
